<?xml version="1.0" standalone="no"?>
<!DOCTYPE svg PUBLIC "-//W3C//DTD SVG 20010904//EN"
 "http://www.w3.org/TR/2001/REC-SVG-20010904/DTD/svg10.dtd">
<svg version="1.0" xmlns="http://www.w3.org/2000/svg"
 width="260.000000pt" height="260.000000pt" viewBox="0 0 260.000000 260.000000"
 preserveAspectRatio="xMidYMid meet">
<metadata>
Created by potrace 1.14, written by Peter Selinger 2001-2017
</metadata>
<g transform="translate(0.000000,260.000000) scale(0.100000,-0.100000)"
fill="#000000" stroke="none">
<path d="M1303 2541 c-46 -8 -121 -39 -141 -58 -7 -7 -24 -13 -36 -13 -31 0
-86 -20 -86 -31 0 -5 -7 -9 -15 -9 -8 0 -15 -4 -15 -9 0 -5 -12 -12 -26 -15
-58 -15 -138 -79 -174 -141 -13 -22 -34 -50 -47 -62 -13 -12 -23 -25 -23 -29
0 -4 -7 -12 -15 -18 -8 -6 -19 -31 -24 -56 -5 -25 -17 -80 -27 -122 -14 -63
-16 -104 -11 -230 4 -84 14 -185 22 -223 20 -95 19 -105 -7 -105 -13 0 -28 -4
-34 -8 -19 -12 -25 -76 -13 -158 12 -91 31 -142 59 -161 11 -8 20 -24 20 -36
0 -31 37 -175 56 -217 32 -73 50 -107 93 -175 24 -38 50 -74 57 -78 8 -4 14
-13 14 -20 0 -7 18 -28 40 -47 22 -19 40 -38 40 -43 0 -9 79 -88 106 -104 74
-46 130 -65 184 -60 52 4 131 33 138 50 2 4 9 7 15 7 12 0 55 33 92 70 12 11
24 20 28 20 10 0 197 190 197 200 0 4 11 20 25 36 14 16 25 34 25 41 0 6 4 13
8 15 13 5 61 109 81 176 11 35 30 73 43 85 13 12 39 64 57 115 27 73 32 102
28 139 -3 26 -9 49 -15 51 -5 1 -17 8 -27 15 -16 12 -16 16 -1 52 9 21 23 75
31 119 8 45 22 101 32 126 14 36 17 72 16 183 -2 159 -11 194 -64 247 -21 21
-39 41 -39 45 0 4 -15 20 -32 36 -47 42 -56 49 -63 49 -3 0 -18 11 -33 25 -18
17 -38 25 -64 25 -35 0 -36 2 -43 43 -11 65 -53 137 -87 150 -10 3 -18 12 -18
19 0 17 -56 52 -115 73 -58 19 -153 27 -212 16z"/>
</g>
</svg>
